<svg width="63" height="51" viewBox="0 0 63 51" fill="none" xmlns="http://www.w3.org/2000/svg">
<path d="M51.2273 25.3636H45.5909V33.8182H37.1364V39.4545H51.2273V25.3636ZM17.4091 16.9091H25.8636V11.2727H11.7727V25.3636H17.4091V16.9091ZM56.8636 0H6.13636C4.64151 0 3.20788 0.593829 2.15085 1.65085C1.09383 2.70788 0.5 4.14151 0.5 5.63636V45.0909C0.5 46.5858 1.09383 48.0194 2.15085 49.0764C3.20788 50.1334 4.64151 50.7273 6.13636 50.7273H56.8636C58.3585 50.7273 59.7921 50.1334 60.8491 49.0764C61.9062 48.0194 62.5 46.5858 62.5 45.0909V5.63636C62.5 4.14151 61.9062 2.70788 60.8491 1.65085C59.7921 0.593829 58.3585 0 56.8636 0ZM56.8636 45.0909H6.13636V5.63636H56.8636V45.0909Z" fill="#03D6F3"/>
</svg>
