<svg width="42" height="42" viewBox="0 0 42 42" fill="none" xmlns="http://www.w3.org/2000/svg">
<g id="ant-design:facebook-filled">
<path id="Vector" d="M36.2103 5.20996H6.7512C6.04274 5.20996 5.47037 5.78233 5.47037 6.49079V35.9499C5.47037 36.6584 6.04274 37.2307 6.7512 37.2307H36.2103C36.9188 37.2307 37.4911 36.6584 37.4911 35.9499V6.49079C37.4911 5.78233 36.9188 5.20996 36.2103 5.20996ZM32.5119 14.556H29.9543C27.949 14.556 27.5607 15.5086 27.5607 16.9096V19.9956H32.3478L31.7234 24.8267H27.5607V37.2307H22.5695V24.8307H18.3948V19.9956H22.5695V16.4332C22.5695 12.2986 25.0951 10.0451 28.7855 10.0451C30.5546 10.0451 32.0716 10.1772 32.5159 10.2372V14.556H32.5119Z" fill="white"/>
</g>
</svg>
