<svg width="42" height="42" viewBox="0 0 42 42" fill="none" xmlns="http://www.w3.org/2000/svg">
<g id="ant-design:linkedin-filled">
<path id="Vector" d="M36.1981 5.20996H6.73899C6.03053 5.20996 5.45816 5.78233 5.45816 6.49079V35.9499C5.45816 36.6584 6.03053 37.2307 6.73899 37.2307H36.1981C36.9066 37.2307 37.4789 36.6584 37.4789 35.9499V6.49079C37.4789 5.78233 36.9066 5.20996 36.1981 5.20996ZM14.9563 32.4957H10.2052V17.2137H14.9563V32.4957ZM12.5828 15.1244C12.0381 15.1244 11.5057 14.9629 11.0529 14.6603C10.6 14.3577 10.247 13.9276 10.0386 13.4244C9.83019 12.9212 9.77565 12.3676 9.88191 11.8334C9.98817 11.2992 10.2504 10.8085 10.6356 10.4234C11.0207 10.0383 11.5114 9.77599 12.0455 9.66973C12.5797 9.56348 13.1334 9.61801 13.6366 9.82644C14.1398 10.0349 14.5699 10.3878 14.8725 10.8407C15.1751 11.2935 15.3366 11.826 15.3366 12.3706C15.3326 13.8916 14.0998 15.1244 12.5828 15.1244ZM32.7439 32.4957H27.9968V25.0628C27.9968 23.2897 27.9648 21.0122 25.5272 21.0122C23.0576 21.0122 22.6773 22.9415 22.6773 24.9348V32.4957H17.9343V17.2137H22.4892V19.3031H22.5533C23.1857 18.1023 24.7347 16.8335 27.0482 16.8335C31.8593 16.8335 32.7439 19.9996 32.7439 24.1142V32.4957Z" fill="white"/>
</g>
</svg>
