<svg width="46" height="47" viewBox="0 0 46 47" fill="none" xmlns="http://www.w3.org/2000/svg">
<g id="bx:bx-map">
<path id="Vector" d="M23 27.0609C27.2282 27.0609 30.6667 23.6224 30.6667 19.3942C30.6667 15.166 27.2282 11.7275 23 11.7275C18.7718 11.7275 15.3333 15.166 15.3333 19.3942C15.3333 23.6224 18.7718 27.0609 23 27.0609ZM23 15.5609C25.1141 15.5609 26.8333 17.2801 26.8333 19.3942C26.8333 21.5083 25.1141 23.2275 23 23.2275C20.8859 23.2275 19.1667 21.5083 19.1667 19.3942C19.1667 17.2801 20.8859 15.5609 23 15.5609Z" fill="white"/>
<path id="Vector_2" d="M21.8884 42.0374C22.2128 42.269 22.6014 42.3936 23.0001 42.3936C23.3987 42.3936 23.7873 42.269 24.1117 42.0374C24.6944 41.6253 38.389 31.7372 38.3334 19.3939C38.3334 10.9395 31.4545 4.06055 23.0001 4.06055C14.5457 4.06055 7.66673 10.9395 7.66673 19.3843C7.61115 31.7372 21.3057 41.6253 21.8884 42.0374ZM23.0001 7.89388C29.3423 7.89388 34.5001 13.0516 34.5001 19.4035C34.5403 27.9096 26.0897 35.5476 23.0001 38.0526C19.9123 35.5456 11.4598 27.9058 11.5001 19.3939C11.5001 13.0516 16.6578 7.89388 23.0001 7.89388Z" fill="white"/>
</g>
</svg>
