<svg width="63" height="62" viewBox="0 0 63 62" fill="none" xmlns="http://www.w3.org/2000/svg">
<path d="M13.7857 17.419L7.49714 11.16L11.66 6.99714L17.919 13.2857L13.7857 17.419ZM34.4524 0V8.85714H28.5476V0H34.4524ZM55.5029 11.16L49.2143 17.419L45.081 13.2857L51.34 6.99714L55.5029 11.16ZM9.35714 28.0476V33.9524H0.5V28.0476H9.35714ZM53.6429 28.0476H62.5V33.9524H53.6429V28.0476ZM13.7857 56.0952H49.2143C50.7803 56.0952 52.2822 56.7173 53.3896 57.8247C54.4969 58.9321 55.119 60.434 55.119 62H7.88095C7.88095 60.434 8.50306 58.9321 9.61042 57.8247C10.7178 56.7173 12.2197 56.0952 13.7857 56.0952ZM31.5 11.8095C36.1981 11.8095 40.7038 13.6758 44.0259 16.9979C47.348 20.32 49.2143 24.8257 49.2143 29.5238V53.1429H13.7857V29.5238C13.7857 24.8257 15.652 20.32 18.9741 16.9979C22.2962 13.6758 26.8019 11.8095 31.5 11.8095Z" fill="#03D6F3"/>
</svg>
