<svg width="63" height="62" viewBox="0 0 63 62" fill="none" xmlns="http://www.w3.org/2000/svg">
<path d="M31.5 27.3729C32.462 27.3729 33.3845 27.755 34.0648 28.4352C34.745 29.1155 35.1271 30.038 35.1271 31C35.1271 31.962 34.745 32.8845 34.0648 33.5648C33.3845 34.245 32.462 34.6271 31.5 34.6271C30.538 34.6271 29.6155 34.245 28.9352 33.5648C28.255 32.8845 27.8729 31.962 27.8729 31C27.8729 30.038 28.255 29.1155 28.9352 28.4352C29.6155 27.755 30.538 27.3729 31.5 27.3729ZM3.28103 2.78103C8.4678 -2.40575 19.7119 -0.084394 31.5 7.64137C43.2881 -0.084394 54.5322 -2.40575 59.719 2.78103C64.9057 7.9678 62.5844 19.2119 54.8586 31C62.5844 42.7881 64.9057 54.0322 59.719 59.219C54.5322 64.4057 43.2881 62.0844 31.5 54.3586C19.7119 62.0844 8.4678 64.4057 3.28103 59.219C-1.90575 54.0322 0.415606 42.7881 8.14137 31C0.415606 19.2119 -1.90575 7.9678 3.28103 2.78103ZM44.34 18.16C46.5525 20.4088 48.5837 22.6939 50.4698 24.979C55.4752 17.2532 57.2888 10.6156 54.5685 7.93153C51.8844 5.2112 45.2468 7.02476 37.521 12.0302C39.8061 13.9163 42.0912 15.9475 44.34 18.16ZM18.66 43.84C16.4475 41.5912 14.4163 39.3061 12.5302 37.021C7.52476 44.7468 5.7112 51.3844 8.43153 54.0685C11.1156 56.7888 17.7532 54.9752 25.479 49.9698C23.1939 48.0837 20.9088 46.0525 18.66 43.84ZM8.43153 7.93153C5.7112 10.6156 7.52476 17.2532 12.5302 24.979C14.4163 22.6939 16.4475 20.4088 18.66 18.16C20.9088 15.9475 23.1939 13.9163 25.479 12.0302C17.7532 7.02476 11.1156 5.2112 8.43153 7.93153ZM23.8105 38.6895C26.3495 41.2285 28.961 43.5498 31.5 45.6173C34.039 43.5498 36.6505 41.2285 39.1895 38.6895C41.7285 36.1505 44.0498 33.539 46.1173 31C44.0498 28.461 41.7285 25.8495 39.1895 23.3105C36.6505 20.7715 34.039 18.4502 31.5 16.3827C28.961 18.4502 26.3495 20.7715 23.8105 23.3105C21.2715 25.8495 18.9502 28.461 16.8827 31C18.9502 33.539 21.2715 36.1505 23.8105 38.6895ZM54.5685 54.0685C57.2888 51.3844 55.4752 44.7468 50.4698 37.021C48.5837 39.3061 46.5525 41.5912 44.34 43.84C42.0912 46.0525 39.8061 48.0837 37.521 49.9698C45.2468 54.9752 51.8844 56.7888 54.5685 54.0685Z" fill="white"/>
</svg>
