<svg width="41" height="42" viewBox="0 0 41 42" fill="none" xmlns="http://www.w3.org/2000/svg">
<g id="ant-design:twitter-outlined">
<path id="Vector" d="M37.1449 10.9065C35.9201 11.4348 34.5873 11.8151 33.2144 11.9632C34.6398 11.1164 35.7072 9.77855 36.2163 8.20073C34.8788 8.9964 33.4135 9.55434 31.8855 9.8498C31.2469 9.16706 30.4745 8.62316 29.6165 8.25199C28.7584 7.88082 27.8332 7.69033 26.8983 7.6924C23.1158 7.6924 20.0739 10.7584 20.0739 14.5208C20.0739 15.0492 20.1379 15.5775 20.242 16.0858C14.5783 15.7897 9.52702 13.0839 6.16884 8.94121C5.55694 9.98635 5.23629 11.1764 5.24023 12.3874C5.24023 14.757 6.44502 16.8463 8.28221 18.0751C7.19952 18.0325 6.14219 17.7349 5.19621 17.2066V17.2906C5.19621 20.6088 7.54173 23.3586 10.6678 23.991C10.0808 24.1434 9.47701 24.2214 8.87059 24.2231C8.4263 24.2231 8.00603 24.1791 7.58175 24.1191C8.44631 26.8248 10.9639 28.7901 13.9619 28.8541C11.6164 30.6913 8.67846 31.772 5.48839 31.772C4.91602 31.772 4.38768 31.752 3.83932 31.688C6.86529 33.6292 10.4556 34.75 14.3221 34.75C26.8743 34.75 33.7427 24.3512 33.7427 15.3254C33.7427 15.0292 33.7427 14.733 33.7227 14.4368C35.0516 13.4641 36.2163 12.2594 37.1449 10.9065Z" fill="white"/>
</g>
</svg>
